<svg version="1.1" id="Layer_1" xmlns="http://www.w3.org/2000/svg" xmlns:xlink="http://www.w3.org/1999/xlink" x="0px" y="0px"
	 width="100%" viewBox="0 0 1080 1080" enable-background="new 0 0 1080 1080" xml:space="preserve">
<path fill="#000000" opacity="1.000000" stroke="none" 
	d="
M606.000000,1081.000000 
	C404.023254,1081.000000 202.546509,1081.000000 1.034878,1081.000000 
	C1.034878,721.064819 1.034878,361.129578 1.034878,1.097191 
	C360.893646,1.097191 720.787354,1.097191 1080.840576,1.097191 
	C1080.840576,360.999939 1080.840576,720.999939 1080.840576,1081.000000 
	C922.795837,1081.000000 764.647888,1081.000000 606.000000,1081.000000 
M236.263885,465.254608 
	C234.788834,467.009308 232.987915,468.584076 231.900757,470.552948 
	C228.821915,476.128876 225.956451,481.827484 223.148941,487.547455 
	C216.065689,501.978729 208.963654,516.402710 202.110016,530.943115 
	C200.826447,533.666260 199.264069,537.486572 200.218384,539.826904 
	C204.774963,551.001343 210.154694,561.840088 215.494629,573.343079 
	C216.537292,571.548462 217.347488,570.338623 217.977188,569.041199 
	C223.417969,557.831055 228.868622,546.625244 234.220016,535.372375 
	C235.967178,531.698486 237.430542,527.889648 239.634689,523.762573 
	C249.791031,502.734467 259.947388,481.706390 270.436401,459.989563 
	C264.606079,459.989563 259.500214,460.138428 254.406616,459.952087 
	C247.972214,459.716644 242.084244,461.097198 236.263885,465.254608 
M167.029739,600.838928 
	C173.463348,614.589050 179.896957,628.339172 186.789291,643.069641 
	C187.605591,641.482788 187.931976,640.994873 188.121399,640.458557 
	C192.362869,628.447632 196.645126,616.450317 200.731796,604.386841 
	C201.138016,603.187683 200.612976,601.455261 200.046371,600.181030 
	C197.117477,593.593994 194.097275,587.045532 190.992340,580.539246 
	C183.732529,565.326660 176.406281,550.145752 168.991379,534.224060 
	C165.704041,527.292847 162.380157,520.378601 159.138382,513.426147 
	C154.862000,504.254761 150.921829,494.914612 146.325256,485.908295 
	C142.575272,478.560699 140.469193,470.074310 132.744431,464.342499 
	C122.675392,457.794708 111.480339,460.580933 99.821228,459.909271 
	C102.790802,466.132324 105.363899,471.600616 108.001640,477.037537 
	C115.286736,492.053528 122.598808,507.056396 130.005173,522.808655 
	C135.685837,534.936646 141.288391,547.101990 147.067810,559.182739 
	C153.612671,572.863586 160.316071,586.468506 167.029739,600.838928 
M406.454742,629.000000 
	C409.287262,628.992371 412.226257,629.480225 414.935181,628.897766 
	C434.299530,624.734741 451.078613,616.228271 463.470093,600.105957 
	C476.926971,582.597595 482.034943,562.714600 478.749756,541.287170 
	C475.859833,522.438171 466.921051,506.394592 451.688049,494.053864 
	C433.325653,479.177826 412.581573,474.208649 389.627380,478.046143 
	C364.450470,482.255219 346.310425,496.358185 334.652679,518.857361 
	C326.887909,533.843201 325.291931,549.800354 327.976868,566.323242 
	C331.375366,587.237366 341.942078,603.607849 359.224274,615.708679 
	C373.104706,625.427551 388.417175,630.267639 406.454742,629.000000 
M586.990173,596.482239 
	C580.088135,587.082336 573.186157,577.682495 566.181213,568.142517 
	C567.315918,567.479309 568.478394,566.486267 569.820190,566.067810 
	C577.333252,563.724304 583.111938,558.674988 587.532104,552.722107 
	C603.051208,531.821533 597.181152,501.447876 575.728943,487.912109 
	C566.585144,482.142578 557.076965,478.655609 546.083069,478.915100 
	C531.490906,479.259521 516.884583,479.000000 502.231812,479.000000 
	C502.231812,528.892883 502.231812,578.281982 502.231812,627.766724 
	C508.203003,627.766724 513.939880,627.766724 520.065063,627.766724 
	C520.065063,608.468689 520.065063,589.399658 520.065063,570.000244 
	C528.411438,570.000244 536.371704,569.941284 544.328735,570.076599 
	C545.298279,570.093018 546.557434,570.929810 547.164795,571.763489 
	C559.822083,589.137512 572.375244,606.587402 585.050232,623.948425 
	C586.220947,625.551880 588.000000,627.697571 589.621643,627.811462 
	C595.994995,628.259399 602.418396,627.994934 610.117798,627.994934 
	C602.100891,617.006592 594.804626,607.005859 586.990173,596.482239 
M679.602051,478.921082 
	C670.854919,498.008209 662.116394,517.099304 653.358398,536.181458 
	C642.255615,560.372498 631.107788,584.542908 620.045593,608.752441 
	C617.204468,614.970154 614.611450,621.301147 611.723633,627.999451 
	C617.747131,627.999451 623.234436,628.153442 628.700439,627.880737 
	C629.918457,627.820007 631.565979,626.509827 632.146118,625.342712 
	C633.993347,621.626526 635.548218,617.750488 637.003845,613.856873 
	C641.056946,603.015808 641.014709,603.000000 652.858398,603.000000 
	C675.818848,603.000000 698.779358,603.000000 721.665588,603.000000 
	C724.981812,610.455872 728.080078,617.689453 731.461731,624.788147 
	C732.102417,626.133118 733.815979,627.774719 735.121826,627.854797 
	C740.673279,628.195068 746.257568,627.999329 752.511475,627.999329 
	C747.544189,617.417358 742.820557,607.618469 738.321472,597.717529 
	C727.049927,572.912842 715.872375,548.065430 704.673279,523.227844 
	C700.325806,513.585938 696.066284,503.904144 691.680298,494.279938 
	C689.217590,488.875824 686.648499,483.516479 683.954712,478.224823 
	C683.468384,477.269562 682.143433,476.741211 681.205688,476.015717 
	C680.794128,476.748810 680.382507,477.481934 679.602051,478.921082 
M822.800842,468.000000 
	C844.797913,467.999969 866.795044,468.005890 888.792114,467.991638 
	C891.223083,467.990082 893.976868,468.628387 894.043701,464.606903 
	C894.108643,460.697296 891.583984,460.989655 889.004272,460.991364 
	C866.340637,461.006317 843.670044,460.670685 821.016479,461.147430 
	C810.647522,461.365631 802.099304,466.196075 795.583984,474.699188 
	C789.884766,482.137207 788.065125,490.539703 788.035095,499.499420 
	C787.940002,527.828674 787.917786,556.158813 788.045654,584.487793 
	C788.088928,594.083130 788.195129,603.720093 789.092346,613.260925 
	C790.940918,632.918640 804.287354,644.597717 823.208557,644.778931 
	C863.626282,645.166077 904.057922,644.493164 944.479065,643.916260 
	C959.324890,643.704346 973.987671,627.870117 973.996460,612.980042 
	C974.009827,590.316406 974.000000,567.652771 974.000000,544.989136 
	C974.000000,543.383606 974.000000,541.778076 974.000000,540.210144 
	C967.009216,539.852844 967.002319,539.852844 967.001282,546.241821 
	C966.997986,567.738953 967.086426,589.236572 966.959045,610.732971 
	C966.905212,619.822571 962.700317,626.831055 955.431213,632.261292 
	C949.764526,636.494385 943.339783,637.943665 936.559326,637.959656 
	C900.231079,638.045166 863.901855,637.870850 827.574219,638.048767 
	C806.026611,638.154297 795.327271,624.153137 795.115845,605.499084 
	C794.715454,570.175049 794.830627,534.842041 795.074463,499.515076 
	C795.189148,482.891083 804.165894,470.734833 822.800842,468.000000 
M831.067139,582.651733 
	C828.722534,587.958557 826.377930,593.265381 823.906433,598.859497 
	C829.693848,598.859497 834.999634,598.859497 840.294189,598.859497 
	C842.433533,594.288147 844.546509,589.773071 846.780273,585.000000 
	C856.260071,585.000000 865.957092,585.576233 875.551270,584.830017 
	C884.282654,584.150879 890.546143,585.571533 892.293884,595.448853 
	C892.536987,596.822937 894.804810,598.684814 896.285950,598.834961 
	C900.719055,599.284424 905.226929,598.996582 910.680298,598.996582 
	C896.315857,567.860046 882.256775,537.385559 867.758850,505.959656 
	C866.329895,507.728699 865.112488,508.748505 864.511230,510.052460 
	C853.460266,534.017883 842.483032,558.017273 831.067139,582.651733 
M287.000000,548.500000 
	C287.000000,574.258179 287.000000,600.016296 287.000000,625.715698 
	C292.973267,625.715698 298.378113,625.715698 303.887451,625.715698 
	C303.887451,587.136414 303.887451,548.841309 303.887451,510.389526 
	C298.256134,511.687622 292.699310,512.968567 287.000000,514.282288 
	C287.000000,525.532166 287.000000,536.516113 287.000000,548.500000 
M923.622192,599.000000 
	C927.035583,599.000000 930.448914,599.000000 933.740845,599.000000 
	C933.740845,568.282776 933.740845,538.349426 933.740845,508.310455 
	C928.755310,508.310455 924.034058,508.310455 919.001831,508.310455 
	C919.001831,537.752625 919.043823,566.885559 918.940002,596.018066 
	C918.929077,599.091431 920.498779,599.166443 923.622192,599.000000 
M919.451721,471.997162 
	C931.695496,475.600708 937.098694,484.805298 939.682373,496.814575 
	C942.690002,481.577087 951.485229,472.302032 967.146667,469.670532 
	C951.368652,467.335999 942.847961,458.087158 940.250977,444.400330 
	C937.153259,449.725159 934.844177,456.151428 930.475647,460.516754 
	C926.054382,464.934875 919.595276,467.313721 914.337891,470.404144 
	C915.108093,470.673309 916.885010,471.294312 919.451721,471.997162 
M961.603333,487.893433 
	C958.757935,493.840942 953.110474,495.625214 946.978638,497.868103 
	C957.332642,498.824799 961.810242,505.772400 964.416565,515.398254 
	C967.845520,504.559357 967.845520,504.559357 982.030334,497.268768 
	C972.105896,495.607361 966.466064,489.857574 964.571289,479.261230 
	C963.460022,482.639557 962.708252,484.925171 961.603333,487.893433 
M287.000000,485.587952 
	C287.000000,490.004059 287.000000,494.420166 287.000000,499.057007 
	C293.013214,497.493500 298.509247,496.064453 303.643219,494.729553 
	C303.643219,489.495697 303.643219,484.778473 303.643219,480.156311 
	C298.015839,480.156311 292.746307,480.156311 287.000000,480.156311 
	C287.000000,481.742004 287.000000,483.178833 287.000000,485.587952 
M962.522156,443.956604 
	C959.939819,446.014832 957.357422,448.073090 954.420654,450.413788 
	C959.919006,450.986237 962.849365,454.571014 963.564758,458.707275 
	C967.112610,455.459198 970.672058,452.200500 973.176941,449.907288 
	C970.324585,447.223572 967.017334,444.111847 963.685059,440.976624 
	C963.592834,441.258972 963.255859,442.290283 962.522156,443.956604 
z"/>
<path fill="#FFFFFF" opacity="1.000000" stroke="none" 
	d="
M405.962341,629.000000 
	C388.417175,630.267639 373.104706,625.427551 359.224274,615.708679 
	C341.942078,603.607849 331.375366,587.237366 327.976868,566.323242 
	C325.291931,549.800354 326.887909,533.843201 334.652679,518.857361 
	C346.310425,496.358185 364.450470,482.255219 389.627380,478.046143 
	C412.581573,474.208649 433.325653,479.177826 451.688049,494.053864 
	C466.921051,506.394592 475.859833,522.438171 478.749756,541.287170 
	C482.034943,562.714600 476.926971,582.597595 463.470093,600.105957 
	C451.078613,616.228271 434.299530,624.734741 414.935181,628.897766 
	C412.226257,629.480225 409.287262,628.992371 405.962341,629.000000 
M345.000092,561.291382 
	C347.482697,568.177002 349.272491,575.416809 352.578156,581.881592 
	C362.392761,601.075806 385.958496,613.514343 407.952332,611.112000 
	C419.180939,609.885620 429.085510,606.252808 438.115356,599.480042 
	C460.779175,582.481201 468.161346,552.986511 455.688293,527.518005 
	C445.216553,506.135895 422.479431,492.398224 397.778320,494.963104 
	C379.418823,496.869476 365.200012,505.356140 354.786774,520.578308 
	C346.509674,532.677856 343.480255,545.949097 345.000092,561.291382 
z"/>
<path fill="#FFFFFF" opacity="1.000000" stroke="none" 
	d="
M587.249268,596.743713 
	C594.804626,607.005859 602.100891,617.006592 610.117798,627.994934 
	C602.418396,627.994934 595.994995,628.259399 589.621643,627.811462 
	C588.000000,627.697571 586.220947,625.551880 585.050232,623.948425 
	C572.375244,606.587402 559.822083,589.137512 547.164795,571.763489 
	C546.557434,570.929810 545.298279,570.093018 544.328735,570.076599 
	C536.371704,569.941284 528.411438,570.000244 520.065063,570.000244 
	C520.065063,589.399658 520.065063,608.468689 520.065063,627.766724 
	C513.939880,627.766724 508.203003,627.766724 502.231812,627.766724 
	C502.231812,578.281982 502.231812,528.892883 502.231812,479.000000 
	C516.884583,479.000000 531.490906,479.259521 546.083069,478.915100 
	C557.076965,478.655609 566.585144,482.142578 575.728943,487.912109 
	C597.181152,501.447876 603.051208,531.821533 587.532104,552.722107 
	C583.111938,558.674988 577.333252,563.724304 569.820190,566.067810 
	C568.478394,566.486267 567.315918,567.479309 566.181213,568.142517 
	C573.186157,577.682495 580.088135,587.082336 587.249268,596.743713 
M577.981262,521.038513 
	C577.651733,520.141663 577.295166,519.253723 576.996887,518.346619 
	C573.631836,508.111572 567.063965,500.237122 556.530579,498.286041 
	C544.709534,496.096375 532.488281,496.067169 520.206604,495.079193 
	C520.206604,515.834351 520.206604,535.227234 520.206604,555.000000 
	C527.024597,555.000000 533.652771,555.219299 540.258789,554.931030 
	C545.602966,554.697876 551.140320,554.609802 556.208252,553.137146 
	C570.820190,548.891113 578.005127,538.162415 577.981262,521.038513 
z"/>
<path fill="#FFFFFF" opacity="1.000000" stroke="none" 
	d="
M679.786499,478.568054 
	C680.382507,477.481934 680.794128,476.748810 681.205688,476.015717 
	C682.143433,476.741211 683.468384,477.269562 683.954712,478.224823 
	C686.648499,483.516479 689.217590,488.875824 691.680298,494.279938 
	C696.066284,503.904144 700.325806,513.585938 704.673279,523.227844 
	C715.872375,548.065430 727.049927,572.912842 738.321472,597.717529 
	C742.820557,607.618469 747.544189,617.417358 752.511475,627.999329 
	C746.257568,627.999329 740.673279,628.195068 735.121826,627.854797 
	C733.815979,627.774719 732.102417,626.133118 731.461731,624.788147 
	C728.080078,617.689453 724.981812,610.455872 721.665588,603.000000 
	C698.779358,603.000000 675.818848,603.000000 652.858398,603.000000 
	C641.014709,603.000000 641.056946,603.015808 637.003845,613.856873 
	C635.548218,617.750488 633.993347,621.626526 632.146118,625.342712 
	C631.565979,626.509827 629.918457,627.820007 628.700439,627.880737 
	C623.234436,628.153442 617.747131,627.999451 611.723633,627.999451 
	C614.611450,621.301147 617.204468,614.970154 620.045593,608.752441 
	C631.107788,584.542908 642.255615,560.372498 653.358398,536.181458 
	C662.116394,517.099304 670.854919,498.008209 679.786499,478.568054 
M694.033020,541.338074 
	C690.157715,532.494324 686.282410,523.650635 681.978943,513.829712 
	C670.690491,539.140320 659.880493,563.378113 648.961365,587.860474 
	C671.364441,587.860474 692.941040,587.860474 714.944153,587.860474 
	C708.041260,572.386292 701.260681,557.186096 694.033020,541.338074 
z"/>
<path fill="#999999" opacity="1.000000" stroke="none" 
	d="
M822.339478,468.000366 
	C804.165894,470.734833 795.189148,482.891083 795.074463,499.515076 
	C794.830627,534.842041 794.715454,570.175049 795.115845,605.499084 
	C795.327271,624.153137 806.026611,638.154297 827.574219,638.048767 
	C863.901855,637.870850 900.231079,638.045166 936.559326,637.959656 
	C943.339783,637.943665 949.764526,636.494385 955.431213,632.261292 
	C962.700317,626.831055 966.905212,619.822571 966.959045,610.732971 
	C967.086426,589.236572 966.997986,567.738953 967.001282,546.241821 
	C967.002319,539.852844 967.009216,539.852844 974.000000,540.210144 
	C974.000000,541.778076 974.000000,543.383606 974.000000,544.989136 
	C974.000000,567.652771 974.009827,590.316406 973.996460,612.980042 
	C973.987671,627.870117 959.324890,643.704346 944.479065,643.916260 
	C904.057922,644.493164 863.626282,645.166077 823.208557,644.778931 
	C804.287354,644.597717 790.940918,632.918640 789.092346,613.260925 
	C788.195129,603.720093 788.088928,594.083130 788.045654,584.487793 
	C787.917786,556.158813 787.940002,527.828674 788.035095,499.499420 
	C788.065125,490.539703 789.884766,482.137207 795.583984,474.699188 
	C802.099304,466.196075 810.647522,461.365631 821.016479,461.147430 
	C843.670044,460.670685 866.340637,461.006317 889.004272,460.991364 
	C891.583984,460.989655 894.108643,460.697296 894.043701,464.606903 
	C893.976868,468.628387 891.223083,467.990082 888.792114,467.991638 
	C866.795044,468.005890 844.797913,467.999969 822.339478,468.000366 
z"/>
<path fill="#999999" opacity="1.000000" stroke="none" 
	d="
M831.278687,582.330627 
	C842.483032,558.017273 853.460266,534.017883 864.511230,510.052460 
	C865.112488,508.748505 866.329895,507.728699 867.758850,505.959656 
	C882.256775,537.385559 896.315857,567.860046 910.680298,598.996582 
	C905.226929,598.996582 900.719055,599.284424 896.285950,598.834961 
	C894.804810,598.684814 892.536987,596.822937 892.293884,595.448853 
	C890.546143,585.571533 884.282654,584.150879 875.551270,584.830017 
	C865.957092,585.576233 856.260071,585.000000 846.780273,585.000000 
	C844.546509,589.773071 842.433533,594.288147 840.294189,598.859497 
	C834.999634,598.859497 829.693848,598.859497 823.906433,598.859497 
	C826.377930,593.265381 828.722534,587.958557 831.278687,582.330627 
M881.067932,570.402588 
	C876.578308,560.362183 872.088623,550.321777 867.210388,539.412415 
	C862.227600,550.526611 857.551086,560.957520 852.600403,572.000000 
	C860.771179,572.000000 868.213196,572.061462 875.652893,571.958069 
	C877.588379,571.931213 879.516724,571.389954 881.067932,570.402588 
z"/>
<path fill="#6D42AF" opacity="1.000000" stroke="none" 
	d="
M133.124115,464.959167 
	C140.469193,470.074310 142.575272,478.560699 146.325256,485.908295 
	C150.921829,494.914612 154.862000,504.254761 159.138382,513.426147 
	C162.380157,520.378601 165.704041,527.292847 168.733856,534.872681 
	C168.318237,537.322266 168.026291,539.122925 168.022781,540.924194 
	C167.988297,558.554688 168.036926,576.185364 167.955475,593.815491 
	C167.945786,595.914001 167.300949,598.009521 166.950516,600.106445 
	C160.316071,586.468506 153.612671,572.863586 147.067810,559.182739 
	C141.288391,547.101990 135.685837,534.936646 130.357300,522.339844 
	C131.144394,520.226257 131.947083,518.583679 131.957199,516.936279 
	C132.053223,501.315582 131.980438,485.693878 132.063309,470.072998 
	C132.072357,468.366577 132.754288,466.663696 133.124115,464.959167 
z"/>
<path fill="#BD326F" opacity="1.000000" stroke="none" 
	d="
M239.023682,524.142517 
	C237.430542,527.889648 235.967178,531.698486 234.220016,535.372375 
	C228.868622,546.625244 223.417969,557.831055 217.977188,569.041199 
	C217.347488,570.338623 216.537292,571.548462 215.494629,573.343079 
	C210.154694,561.840088 204.774963,551.001343 200.218384,539.826904 
	C199.264069,537.486572 200.826447,533.666260 202.110016,530.943115 
	C208.963654,516.402710 216.065689,501.978729 223.148941,487.547455 
	C225.956451,481.827484 228.821915,476.128876 231.900757,470.552948 
	C232.987915,468.584076 234.788834,467.009308 236.881958,465.393280 
	C237.658142,467.333038 237.949310,469.133820 237.953476,470.935272 
	C237.989685,486.572479 237.935196,502.210022 238.020920,517.846863 
	C238.032455,519.947144 238.673920,522.044067 239.023682,524.142517 
z"/>
<path fill="#FFFFFF" opacity="1.000000" stroke="none" 
	d="
M287.000000,548.000000 
	C287.000000,536.516113 287.000000,525.532166 287.000000,514.282288 
	C292.699310,512.968567 298.256134,511.687622 303.887451,510.389526 
	C303.887451,548.841309 303.887451,587.136414 303.887451,625.715698 
	C298.378113,625.715698 292.973267,625.715698 287.000000,625.715698 
	C287.000000,600.016296 287.000000,574.258179 287.000000,548.000000 
z"/>
<path fill="#3F65B7" opacity="1.000000" stroke="none" 
	d="
M166.990112,600.472656 
	C167.300949,598.009521 167.945786,595.914001 167.955475,593.815491 
	C168.036926,576.185364 167.988297,558.554688 168.022781,540.924194 
	C168.026291,539.122925 168.318237,537.322266 168.791626,535.236694 
	C176.406281,550.145752 183.732529,565.326660 190.992340,580.539246 
	C194.097275,587.045532 197.117477,593.593994 200.046371,600.181030 
	C200.612976,601.455261 201.138016,603.187683 200.731796,604.386841 
	C196.645126,616.450317 192.362869,628.447632 188.121399,640.458557 
	C187.931976,640.994873 187.605591,641.482788 186.789291,643.069641 
	C179.896957,628.339172 173.463348,614.589050 166.990112,600.472656 
z"/>
<path fill="#999999" opacity="1.000000" stroke="none" 
	d="
M923.143250,598.999878 
	C920.498779,599.166443 918.929077,599.091431 918.940002,596.018066 
	C919.043823,566.885559 919.001831,537.752625 919.001831,508.310455 
	C924.034058,508.310455 928.755310,508.310455 933.740845,508.310455 
	C933.740845,538.349426 933.740845,568.282776 933.740845,599.000000 
	C930.448914,599.000000 927.035583,599.000000 923.143250,598.999878 
z"/>
<path fill="#D85331" opacity="1.000000" stroke="none" 
	d="
M239.329193,523.952515 
	C238.673920,522.044067 238.032455,519.947144 238.020920,517.846863 
	C237.935196,502.210022 237.989685,486.572479 237.953476,470.935272 
	C237.949310,469.133820 237.658142,467.333038 237.183151,465.251038 
	C242.084244,461.097198 247.972214,459.716644 254.406616,459.952087 
	C259.500214,460.138428 264.606079,459.989563 270.436401,459.989563 
	C259.947388,481.706390 249.791031,502.734467 239.329193,523.952515 
z"/>
<path fill="#882DAA" opacity="1.000000" stroke="none" 
	d="
M132.934265,464.650818 
	C132.754288,466.663696 132.072357,468.366577 132.063309,470.072998 
	C131.980438,485.693878 132.053223,501.315582 131.957199,516.936279 
	C131.947083,518.583679 131.144394,520.226257 130.304810,521.967773 
	C122.598808,507.056396 115.286736,492.053528 108.001640,477.037537 
	C105.363899,471.600616 102.790802,466.132324 99.821228,459.909271 
	C111.480339,460.580933 122.675392,457.794708 132.934265,464.650818 
z"/>
<path fill="#999999" opacity="1.000000" stroke="none" 
	d="
M919.056885,471.956238 
	C916.885010,471.294312 915.108093,470.673309 914.337891,470.404144 
	C919.595276,467.313721 926.054382,464.934875 930.475647,460.516754 
	C934.844177,456.151428 937.153259,449.725159 940.250977,444.400330 
	C942.847961,458.087158 951.368652,467.335999 967.146667,469.670532 
	C951.485229,472.302032 942.690002,481.577087 939.682373,496.814575 
	C937.098694,484.805298 931.695496,475.600708 919.056885,471.956238 
z"/>
<path fill="#999999" opacity="1.000000" stroke="none" 
	d="
M961.779907,487.552124 
	C962.708252,484.925171 963.460022,482.639557 964.571289,479.261230 
	C966.466064,489.857574 972.105896,495.607361 982.030334,497.268768 
	C967.845520,504.559357 967.845520,504.559357 964.416565,515.398254 
	C961.810242,505.772400 957.332642,498.824799 946.978638,497.868103 
	C953.110474,495.625214 958.757935,493.840942 961.779907,487.552124 
z"/>
<path fill="#FFFFFF" opacity="1.000000" stroke="none" 
	d="
M287.000000,485.101807 
	C287.000000,483.178833 287.000000,481.742004 287.000000,480.156311 
	C292.746307,480.156311 298.015839,480.156311 303.643219,480.156311 
	C303.643219,484.778473 303.643219,489.495697 303.643219,494.729553 
	C298.509247,496.064453 293.013214,497.493500 287.000000,499.057007 
	C287.000000,494.420166 287.000000,490.004059 287.000000,485.101807 
z"/>
<path fill="#999999" opacity="1.000000" stroke="none" 
	d="
M962.720520,443.639099 
	C963.255859,442.290283 963.592834,441.258972 963.685059,440.976624 
	C967.017334,444.111847 970.324585,447.223572 973.176941,449.907288 
	C970.672058,452.200500 967.112610,455.459198 963.564758,458.707275 
	C962.849365,454.571014 959.919006,450.986237 954.420654,450.413788 
	C957.357422,448.073090 959.939819,446.014832 962.720520,443.639099 
z"/>
<path fill="#000000" opacity="1.000000" stroke="none" 
	d="
M345.000061,560.844299 
	C343.480255,545.949097 346.509674,532.677856 354.786774,520.578308 
	C365.200012,505.356140 379.418823,496.869476 397.778320,494.963104 
	C422.479431,492.398224 445.216553,506.135895 455.688293,527.518005 
	C468.161346,552.986511 460.779175,582.481201 438.115356,599.480042 
	C429.085510,606.252808 419.180939,609.885620 407.952332,611.112000 
	C385.958496,613.514343 362.392761,601.075806 352.578156,581.881592 
	C349.272491,575.416809 347.482697,568.177002 345.000061,560.844299 
z"/>
<path fill="#000000" opacity="1.000000" stroke="none" 
	d="
M577.989990,521.484741 
	C578.005127,538.162415 570.820190,548.891113 556.208252,553.137146 
	C551.140320,554.609802 545.602966,554.697876 540.258789,554.931030 
	C533.652771,555.219299 527.024597,555.000000 520.206604,555.000000 
	C520.206604,535.227234 520.206604,515.834351 520.206604,495.079193 
	C532.488281,496.067169 544.709534,496.096375 556.530579,498.286041 
	C567.063965,500.237122 573.631836,508.111572 576.996887,518.346619 
	C577.295166,519.253723 577.651733,520.141663 577.989990,521.484741 
z"/>
<path fill="#000000" opacity="1.000000" stroke="none" 
	d="
M694.256531,541.661987 
	C701.260681,557.186096 708.041260,572.386292 714.944153,587.860474 
	C692.941040,587.860474 671.364441,587.860474 648.961365,587.860474 
	C659.880493,563.378113 670.690491,539.140320 681.978943,513.829712 
	C686.282410,523.650635 690.157715,532.494324 694.256531,541.661987 
z"/>
<path fill="#000000" opacity="1.000000" stroke="none" 
	d="
M881.258118,570.743774 
	C879.516724,571.389954 877.588379,571.931213 875.652893,571.958069 
	C868.213196,572.061462 860.771179,572.000000 852.600403,572.000000 
	C857.551086,560.957520 862.227600,550.526611 867.210388,539.412415 
	C872.088623,550.321777 876.578308,560.362183 881.258118,570.743774 
z"/>
</svg>